HIERARCHY
ROOT Pelvis
{
	OFFSET 0.000000 0.000000 0.000000
	CHANNELS 6 Xposition Yposition Zposition Xrotation Yrotation Zrotation
	JOINT LeftUpLeg_virtual
	{
		OFFSET 0.000000 0.000000 0.000000
		CHANNELS 3 Xrotation Yrotation Zrotation
		JOINT LeftUpLeg
		{
			OFFSET 18.735201 -5.666702 -4.541200
			CHANNELS 3 Xrotation Yrotation Zrotation
			JOINT LeftLeg
			{
				OFFSET -0.021200 -31.938179 0.493100
				CHANNELS 3 Xrotation Yrotation Zrotation
				JOINT LeftFoot
				{
					OFFSET 0.021200 -31.938179 -4.336299
					CHANNELS 3 Xrotation Yrotation Zrotation
					JOINT LeftToeBase
					{
						OFFSET 0.943001 -26.722000 15.023500
						CHANNELS 3 Xrotation Yrotation Zrotation
						End Site
						{
							OFFSET 0 0 0
						}
					}
				}
			}
		}
	}
	JOINT RightUpLeg_virtual
	{
		OFFSET 0.000000 0.000000 0.000000
		CHANNELS 3 Xrotation Yrotation Zrotation
		JOINT RightUpLeg
		{
			OFFSET -18.735201 -5.666702 -4.541200
			CHANNELS 3 Xrotation Yrotation Zrotation
			JOINT RightLeg
			{
				OFFSET 0.018946 -31.938133 0.493100
				CHANNELS 3 Xrotation Yrotation Zrotation
				JOINT RightFoot
				{
					OFFSET -0.018946 -31.938126 -4.336299
					CHANNELS 3 Xrotation Yrotation Zrotation
					JOINT RightToeBase
					{
						OFFSET -0.943001 -26.722004 15.023500
						CHANNELS 3 Xrotation Yrotation Zrotation
						End Site
						{
							OFFSET 0 0 0
						}
					}
				}
			}
		}
	}
	JOINT Hips_virtual
	{
		OFFSET 0.000000 0.000000 0.000000
		CHANNELS 3 Xrotation Yrotation Zrotation
		JOINT Hips
		{
			OFFSET -0.000000 -0.000000 -0.000000
			CHANNELS 3 Xrotation Yrotation Zrotation
			JOINT Spine
			{
				OFFSET 0.000000 10.199997 -0.299500
				CHANNELS 3 Xrotation Yrotation Zrotation
				JOINT Spine1
				{
					OFFSET 0.000000 11.900002 -1.516600
					CHANNELS 3 Xrotation Yrotation Zrotation
					JOINT Spine2
					{
						OFFSET 0.000000 13.600006 -2.842500
						CHANNELS 3 Xrotation Yrotation Zrotation
						JOINT Neck_virtual
						{
							OFFSET 0.000000 0.000000 0.000000
							CHANNELS 3 Xrotation Yrotation Zrotation
							JOINT Neck
							{
								OFFSET 0.000000 9.624100 -2.890100
								CHANNELS 3 Xrotation Yrotation Zrotation
								JOINT Head
								{
									OFFSET 0.000000 14.068802 -1.351900
									CHANNELS 3 Xrotation Yrotation Zrotation
									End Site
									{
										OFFSET 0 0 0
									}
								}
							}
						}
						JOINT LeftShoulder_virtual
						{
							OFFSET 0.000000 0.000000 0.000000
							CHANNELS 3 Xrotation Yrotation Zrotation
							JOINT LeftShoulder
							{
								OFFSET 15.263000 10.923401 -0.547700
								CHANNELS 3 Xrotation Yrotation Zrotation
								JOINT LeftArm
								{
									OFFSET 25.438599 -2.830597 -13.032500
									CHANNELS 3 Xrotation Yrotation Zrotation
									JOINT LeftForeArm
									{
										OFFSET 29.960503 0.000000 0.000000
										CHANNELS 3 Xrotation Yrotation Zrotation
										JOINT LeftHand
										{
											OFFSET 27.849251 0.000000 0.000000
											CHANNELS 3 Xrotation Yrotation Zrotation
											End Site
											{
												OFFSET 0 0 0
											}
										}
									}
								}
							}
						}
						JOINT RightShoulder_virtual
						{
							OFFSET 0.000000 0.000000 0.000000
							CHANNELS 3 Xrotation Yrotation Zrotation
							JOINT RightShoulder
							{
								OFFSET -15.263000 10.923401 -0.547700
								CHANNELS 3 Xrotation Yrotation Zrotation
								JOINT RightArm
								{
									OFFSET -25.438599 -2.830597 -13.032500
									CHANNELS 3 Xrotation Yrotation Zrotation
									JOINT RightForeArm
									{
										OFFSET -29.960503 0.000000 0.000000
										CHANNELS 3 Xrotation Yrotation Zrotation
										JOINT RightHand
										{
											OFFSET -27.849251 0.000000 0.000000
											CHANNELS 3 Xrotation Yrotation Zrotation
											End Site
											{
												OFFSET 0 0 0
											}
										}
									}
								}
							}
						}
					}
				}
			}
		}
	}
}
MOTION
Frames: 10
Frame Time: 0.03333333
2.752119 83.668762 -2.245295 0.000000 0.000000 0.000000 -0.909678 -14.294348 -6.291891 -48.581182 8.786252 14.149820 55.898313 -5.550922 4.331450 0.640735 -8.042573 -3.834261 0.000000 0.000000 0.000000 2.260384 -15.045377 2.379275 -30.180881 -8.723997 -14.579566 29.820227 -7.931466 1.509165 -18.647982 -12.427728 7.935337 0.000000 0.000000 0.000000 15.708694 9.178001 -3.943945 10.172385 -18.563944 -20.659160 12.450489 2.102088 -17.784653 8.785981 2.133834 -11.631306 0.000000 0.000000 0.000000 7.559610 4.230444 -10.629642 -0.450334 0.566834 -1.802957 0.000000 0.000000 0.000000 5.594358 4.694851 -6.610161 0.885733 -7.980797 -2.038771 -26.849564 -31.694977 -70.806946 -157.748874 -83.301916 -160.194369 0.000000 0.000000 0.000000 7.884656 2.552137 -7.323040 1.429265 -3.491631 -14.669909 8.964216 51.283178 -3.793603 5.074609 85.158027 -0.280817 0.000000 0.000000 0.000000 
2.691606 83.723274 -2.210659 0.000000 0.000000 0.000000 -0.953533 -13.852869 -6.263780 -48.615050 8.852497 14.188514 55.741536 -5.496113 4.341251 0.512115 -7.983323 -3.772929 0.000000 0.000000 0.000000 2.314689 -14.890786 2.345385 -30.050285 -8.687948 -14.580531 29.900266 -7.867348 1.503714 -18.538694 -12.366098 7.961352 0.000000 0.000000 0.000000 15.660253 9.124214 -3.908769 9.912584 -18.604612 -20.610801 12.552450 2.093894 -17.704246 8.853767 2.118819 -11.572893 0.000000 0.000000 0.000000 7.822326 4.195000 -10.500507 -0.296364 0.557856 -1.740281 0.000000 0.000000 0.000000 5.601559 4.696967 -6.544993 0.872045 -7.870576 -1.887862 -26.470031 -31.629793 -70.412352 -156.546884 -83.814863 -159.065557 0.000000 0.000000 0.000000 7.992512 2.534187 -7.298132 1.549840 -3.309585 -14.791283 8.823756 51.423862 -3.613242 4.561164 85.148287 0.260882 0.000000 0.000000 0.000000 
2.612495 83.777573 -2.183405 0.000000 0.000000 0.000000 -0.979309 -13.500572 -6.217108 -48.622204 8.896275 14.233236 55.595182 -5.437300 4.337917 0.388291 -7.913724 -3.728856 0.000000 0.000000 0.000000 2.382885 -14.698128 2.320691 -29.897111 -8.646959 -14.568165 29.993440 -7.814371 1.499568 -18.415508 -12.315507 7.982393 0.000000 0.000000 0.000000 15.594165 9.049119 -3.865589 9.624784 -18.676860 -20.525195 12.643386 2.085363 -17.622066 8.914097 2.104346 -11.512919 0.000000 0.000000 0.000000 8.065861 4.165700 -10.370999 -0.148197 0.551392 -1.677472 0.000000 0.000000 0.000000 5.604563 4.704501 -6.486230 0.851838 -7.746312 -1.764120 -26.161100 -31.527098 -70.029588 -155.016484 -84.321561 -157.599990 0.000000 0.000000 0.000000 8.103015 2.516553 -7.274066 1.680728 -3.127485 -14.919556 8.754154 51.541574 -3.432263 4.118663 85.103310 0.755394 0.000000 0.000000 0.000000 
2.523438 83.829674 -2.160391 0.000000 0.000000 0.000000 -0.993512 -13.237649 -6.152799 -48.606184 8.916149 14.282113 55.452964 -5.375285 4.318917 0.268106 -7.833617 -3.705516 0.000000 0.000000 0.000000 2.454685 -14.464666 2.297676 -29.734815 -8.596545 -14.549394 30.101316 -7.773669 1.494274 -18.278775 -12.275533 7.993754 0.000000 0.000000 0.000000 15.515646 8.952283 -3.817455 9.313622 -18.800625 -20.410796 12.741923 2.072947 -17.537323 8.977818 2.088730 -11.451350 0.000000 0.000000 0.000000 8.298051 4.140245 -10.239805 -0.006128 0.545049 -1.613977 0.000000 0.000000 0.000000 5.612851 4.714461 -6.430904 0.834245 -7.621012 -1.653285 -25.884170 -31.423351 -69.642009 -153.166555 -84.812310 -155.804702 0.000000 0.000000 0.000000 8.221016 2.501499 -7.249016 1.818856 -2.939200 -15.047668 8.713720 51.657482 -3.243908 3.694653 85.029373 1.244097 0.000000 0.000000 0.000000 
2.432335 83.874840 -2.159220 0.000000 0.000000 0.000000 -1.007414 -13.063325 -6.073324 -48.582374 8.910804 14.336212 55.307819 -5.305649 4.284128 0.148084 -7.738525 -3.699087 0.000000 0.000000 0.000000 2.523181 -14.214582 2.270279 -29.574767 -8.540083 -14.532843 30.217802 -7.748627 1.488279 -18.134453 -12.249859 7.994262 0.000000 0.000000 0.000000 15.433936 8.844014 -3.767884 9.020190 -18.959895 -20.265516 12.851804 2.055131 -17.449077 9.046710 2.071534 -11.388266 0.000000 0.000000 0.000000 8.517030 4.117588 -10.105674 0.128977 0.537404 -1.548589 0.000000 0.000000 0.000000 5.627163 4.723240 -6.376980 0.820563 -7.512907 -1.546127 -25.658560 -31.335959 -69.258665 -151.043199 -85.270219 -153.721713 0.000000 0.000000 0.000000 8.345141 2.489425 -7.221022 1.962628 -2.745332 -15.161973 8.669441 51.772209 -3.032250 3.239703 84.923560 1.771986 0.000000 0.000000 0.000000 
2.339036 83.921043 -2.178164 0.000000 0.000000 0.000000 -1.014776 -12.967058 -5.977057 -48.543281 8.883070 14.396307 55.166861 -5.232225 4.233585 0.032496 -7.632412 -3.712877 0.000000 0.000000 0.000000 2.575447 -13.957009 2.230649 -29.433379 -8.475773 -14.526144 30.321754 -7.739803 1.480163 -18.001361 -12.239148 7.981816 0.000000 0.000000 0.000000 15.355298 8.736163 -3.717362 8.770371 -19.146791 -20.076067 12.984814 2.030725 -17.347480 9.127627 2.051793 -11.317898 0.000000 0.000000 0.000000 8.724490 4.096552 -9.965251 0.258556 0.527164 -1.479066 0.000000 0.000000 0.000000 5.648201 4.728274 -6.321802 0.812564 -7.438436 -1.431092 -25.491451 -31.283602 -68.872814 -148.782858 -85.686431 -151.484320 0.000000 0.000000 0.000000 8.470884 2.480017 -7.188904 2.108547 -2.551634 -15.253559 8.596378 51.871086 -2.790941 2.736482 84.769430 2.351176 0.000000 0.000000 0.000000 
2.238361 83.964790 -2.208910 0.000000 0.000000 0.000000 -1.025963 -12.933053 -5.871280 -48.497468 8.836756 14.456404 55.013574 -5.159168 4.169393 -0.093190 -7.519266 -3.746453 0.000000 0.000000 0.000000 2.612617 -13.707697 2.184303 -29.309315 -8.409429 -14.524530 30.409997 -7.752857 1.476697 -17.883814 -12.252348 7.964216 0.000000 0.000000 0.000000 15.284329 8.644050 -3.668381 8.588229 -19.341636 -19.842060 13.145353 2.004017 -17.226632 9.223564 2.031355 -11.237038 0.000000 0.000000 0.000000 8.926433 4.078814 -9.815009 0.385669 0.515117 -1.403431 0.000000 0.000000 0.000000 5.679279 4.726204 -6.261061 0.814762 -7.414490 -1.289761 -25.380157 -31.301586 -68.483356 -146.737175 -86.043144 -149.446274 0.000000 0.000000 0.000000 8.605077 2.474522 -7.148303 2.264987 -2.353902 -15.300693 8.548016 51.959028 -2.535093 2.291149 84.575951 2.887244 0.000000 0.000000 0.000000 
2.131691 84.008766 -2.274466 0.000000 0.000000 0.000000 -1.040620 -12.940882 -5.765130 -48.444189 8.780161 14.509330 54.841477 -5.088725 4.088851 -0.232836 -7.399806 -3.805054 0.000000 0.000000 0.000000 2.641418 -13.477573 2.139346 -29.194821 -8.347102 -14.521103 30.490593 -7.789209 1.484298 -17.776226 -12.293714 7.951033 0.000000 0.000000 0.000000 15.221838 8.580279 -3.621805 8.470793 -19.517368 -19.575213 13.318589 1.983500 -17.092839 9.326397 2.013824 -11.149637 0.000000 0.000000 0.000000 9.117758 4.065622 -9.654951 0.507828 0.501475 -1.321894 0.000000 0.000000 0.000000 5.721774 4.716352 -6.193274 0.829854 -7.444863 -1.116843 -25.314431 -31.398984 -68.105230 -145.253221 -86.329336 -147.961377 0.000000 0.000000 0.000000 8.735442 2.474057 -7.098663 2.420045 -2.148635 -15.300655 8.462330 52.037715 -2.252110 1.843788 84.331854 3.423786 0.000000 0.000000 0.000000 
2.015375 84.051979 -2.367901 0.000000 0.000000 0.000000 -1.059831 -12.981601 -5.667591 -48.384879 8.718860 14.548064 54.646059 -5.020016 3.996502 -0.389002 -7.275336 -3.881045 0.000000 0.000000 0.000000 2.659609 -13.289041 2.102964 -29.094905 -8.296081 -14.510438 30.560411 -7.848152 1.506558 -17.682016 -12.364504 7.948825 0.000000 0.000000 0.000000 15.165262 8.549447 -3.577258 8.409441 -19.654397 -19.277733 13.500941 1.975866 -16.945990 9.433648 2.002760 -11.055560 0.000000 0.000000 0.000000 9.284510 4.050665 -9.494003 0.617997 0.481827 -1.240261 0.000000 0.000000 0.000000 5.775188 4.700173 -6.116161 0.859466 -7.525256 -0.904272 -25.282077 -31.585380 -67.746017 -144.706341 -86.538524 -147.410154 0.000000 0.000000 0.000000 8.859513 2.480018 -7.038745 2.572041 -1.930667 -15.248539 8.335802 52.109395 -1.944975 1.418755 84.034085 3.933342 0.000000 0.000000 0.000000 
1.885006 84.101265 -2.478655 0.000000 0.000000 0.000000 -1.078962 -13.011761 -5.571938 -48.316714 8.660017 14.580922 54.425369 -4.931623 3.903758 -0.555661 -7.131633 -3.940443 0.000000 0.000000 0.000000 2.671241 -13.147984 2.080867 -29.005505 -8.260010 -14.487741 30.620018 -7.924454 1.541457 -17.601082 -12.458555 7.957556 0.000000 0.000000 0.000000 15.118272 8.542774 -3.535834 8.413857 -19.758993 -18.966390 13.692119 1.983482 -16.790126 9.545556 1.999173 -10.956832 0.000000 0.000000 0.000000 9.415999 4.032110 -9.342757 0.711163 0.455059 -1.164819 0.000000 0.000000 0.000000 5.837755 4.681608 -6.031334 0.902907 -7.637084 -0.658915 -25.266362 -31.848100 -67.425121 -145.254655 -86.671037 -147.960694 0.000000 0.000000 0.000000 8.977713 2.492545 -6.969163 2.722904 -1.695740 -15.146079 8.184430 52.181737 -1.631937 1.063735 83.693416 4.367121 0.000000 0.000000 0.000000 
